<svg width="26" height="26" viewBox="0 0 26 26" fill="none" xmlns="http://www.w3.org/2000/svg">
<path d="M4.51855 20.4713V18.3932H6.5967V11.1197C6.5967 9.68232 7.02964 8.40946 7.89554 7.30111C8.76143 6.17545 9.88709 5.43944 11.2725 5.09309V4.36574C11.2725 3.93279 11.4197 3.56911 11.7141 3.27471C12.0258 2.96299 12.3982 2.80713 12.8311 2.80713C13.2641 2.80713 13.6278 2.96299 13.9222 3.27471C14.2339 3.56911 14.3897 3.93279 14.3897 4.36574V5.09309C15.7752 5.43944 16.9008 6.17545 17.7667 7.30111C18.6326 8.40946 19.0656 9.68232 19.0656 11.1197V18.3932H21.1437V20.4713H4.51855ZM12.8311 23.5886C12.2596 23.5886 11.7661 23.3894 11.3505 22.9911C10.9521 22.5755 10.753 22.0819 10.753 21.5104H14.9093C14.9093 22.0819 14.7015 22.5755 14.2858 22.9911C13.8875 23.3894 13.4026 23.5886 12.8311 23.5886ZM8.67484 18.3932H16.9874V11.1197C16.9874 9.97672 16.5804 8.99826 15.7665 8.18432C14.9526 7.37038 13.9741 6.96341 12.8311 6.96341C11.6881 6.96341 10.7097 7.37038 9.89575 8.18432C9.08181 8.99826 8.67484 9.97672 8.67484 11.1197V18.3932Z" fill="#92A7CD"/>
</svg>
