<svg width="236" height="332" viewBox="0 0 236 332" fill="none" xmlns="http://www.w3.org/2000/svg">
<mask id="mask0_4054_1710" style="mask-type:luminance" maskUnits="userSpaceOnUse" x="9" y="8" width="218" height="323">
<path d="M226.98 8H9V330.83H226.98V8Z" fill="white"/>
</mask>
<g mask="url(#mask0_4054_1710)">
<mask id="mask1_4054_1710" style="mask-type:luminance" maskUnits="userSpaceOnUse" x="9" y="8" width="218" height="323">
<path d="M226.98 8H9V330.83H226.98V8Z" fill="white"/>
</mask>
<g mask="url(#mask1_4054_1710)">
<g opacity="0.66">
<mask id="mask2_4054_1710" style="mask-type:luminance" maskUnits="userSpaceOnUse" x="0" y="0" width="236" height="332">
<path d="M235.87 0H0V331.83H235.87V0Z" fill="white"/>
</mask>
<g mask="url(#mask2_4054_1710)">
<path d="M117.94 330.17C58.2399 330.17 9.66992 281.6 9.66992 221.9V116.94C9.65992 57.23 58.2299 8.66 117.94 8.66C177.65 8.66 226.21 57.23 226.21 116.93V221.89C226.21 281.59 177.64 330.16 117.94 330.16" fill="#2B1F17"/>
</g>
</g>
<path d="M117.94 330.17C58.2399 330.17 9.66992 281.6 9.66992 221.9V116.94C9.65992 57.23 58.2299 8.66 117.94 8.66C177.65 8.66 226.21 57.23 226.21 116.93V221.89C226.21 281.59 177.64 330.16 117.94 330.16V330.17Z" stroke="#CF6117" stroke-width="1.33" stroke-miterlimit="10"/>
<path d="M117.94 284.68C83.3199 284.68 55.1499 256.51 55.1499 221.89V116.93C55.1499 82.31 83.3199 54.14 117.94 54.14C152.56 54.14 180.73 82.31 180.73 116.93V221.89C180.73 256.51 152.56 284.68 117.94 284.68Z" stroke="#CF6117" stroke-width="1.33" stroke-miterlimit="10"/>
<path d="M153.63 124.26C151.23 123.88 148.83 124.05 146.43 123.77C146.24 123.75 146.07 123.73 145.88 123.7C145.81 120.79 145.74 117.86 145.85 114.95C146.07 109.62 146.55 104.24 145.93 98.93C145.9 98.69 145.82 98.11 145.56 98.11H139.89C139.79 97.45 140.14 95.43 139.67 95.1C139.22 94.79 135.1 95.06 134.15 94.74C132.26 82.76 116.82 81.34 111.01 91.41C110.62 92.1 109.79 94.62 109.64 94.72C108.25 95.61 104.99 92.82 105.84 97.63C105.61 97.85 95.2602 97.45 94.2902 97.63C94.0002 97.68 93.5101 97.98 93.4501 98.22V112.26C91.9801 112.16 90.5401 112.4 89.2801 112.95C87.9301 113.54 86.7701 114.52 86.0201 115.7C85.5101 115.68 84.9501 115.73 84.3401 115.84C83.2701 116.05 82.4002 116.38 81.6802 116.85C80.7802 117.45 80.0801 118.7 79.8101 119.61C79.6301 120.22 79.8202 120.95 80.0102 121.45C80.2302 122.03 80.5802 122.62 80.9302 123.02C81.5402 123.71 82.3902 123.99 83.0002 124.09C83.4002 124.16 83.8401 124.2 84.3801 124.18C84.5201 124.18 84.6602 124.18 84.7902 124.18C84.9702 124.33 85.3302 124.5 85.3602 124.5C85.5302 124.59 85.6702 124.65 85.8002 124.7C84.2902 124.89 80.3702 125.29 80.0502 125.32C79.8302 125.33 79.5702 125.39 79.5002 125.6C79.4602 125.74 79.5402 125.89 79.6602 125.98C79.7702 126.07 79.9202 126.1 80.0502 126.13C81.2202 126.37 82.5002 126.35 83.6902 126.38C86.5202 126.45 89.3502 126.45 92.1802 126.38C93.2802 126.36 94.3302 126.29 95.4002 126.14C96.5402 125.99 97.7302 126.22 98.8902 126.27C100.98 126.36 103.08 126.35 105.17 126.21C107.12 126.09 109.14 126.25 111.11 126.24C119.07 126.24 127.01 126.06 134.96 125.99C139.65 125.95 144.33 125.9 149.02 125.79C151 125.74 153.53 126.08 155.44 125.52C157.74 124.85 154.39 124.38 153.62 124.25M121.61 90.48C118.57 91.15 115.52 92.54 112.57 93.19C112.31 93.25 111.75 93.47 111.6 93.19L122.39 88.99C122.45 88.57 121.85 88.75 121.61 88.81C120.81 88.98 119.98 89.37 119.12 89.44L112.56 91.52C115.33 89.6 118.41 88.21 121.67 87.32C121.72 86.87 121.19 87.13 120.94 87.19C119.11 87.6 116.99 88.18 115.31 88.99C115.11 89.03 115.17 88.54 115.2 88.52C115.34 88.37 118.49 86.97 118.91 86.83C125.19 84.72 131.51 88.23 132.71 94.76H120.6C120.49 94.76 119.63 95.61 120.23 94.63C120.88 94.47 121.55 94.41 122.21 94.21C122.51 94.12 123.31 93.92 123.36 93.57L116.76 94.76L114.73 94.52C117.18 94.26 119.52 93.26 121.93 92.72L123.96 91.88C123.13 91.91 122.35 92.22 121.54 92.33C119.26 92.65 117.54 93.05 115.26 93.73C113.91 94.14 112.63 95.2 111.14 94.64L122.41 90.68C122.47 90.25 121.87 90.44 121.63 90.49M89.6301 113.76C90.8001 113.25 92.1501 113.04 93.5301 113.15C94.4201 113.23 95.0901 113.43 95.5901 113.78C96.0401 114.1 96.3601 114.74 96.3801 115.35C96.0201 115.53 95.7002 115.75 95.4102 115.99C94.8702 116.44 94.3501 116.97 93.8101 117.62C93.5201 117.3 93.0902 116.97 92.6102 116.7C91.9902 116.34 90.8802 115.86 89.4102 115.86C88.8902 115.86 88.3301 115.92 87.7401 116.07C87.5001 115.96 87.2501 115.88 86.9901 115.81C87.6501 114.94 88.5701 114.21 89.6301 113.75M84.1602 123.05C84.2102 123.14 84.2701 123.23 84.3101 123.31C83.9501 123.31 83.5502 123.3 83.1602 123.23C82.6902 123.14 82.0401 122.94 81.5901 122.44C81.0001 121.76 80.6502 120.98 80.6502 120.3C80.6502 119.8 80.7902 119.34 81.1202 118.8C81.4102 118.35 81.7101 117.88 82.1701 117.58C82.7901 117.17 83.5502 116.88 84.5102 116.71C84.9802 116.62 85.4101 116.57 85.8101 116.57C86.0001 116.57 86.1902 116.57 86.3702 116.6C85.1702 117.25 84.2802 118.29 83.9102 119.52C83.2802 121.57 83.7502 122.35 84.1602 123.04M85.1402 122.94C84.5002 122.07 84.3501 120.93 84.7401 119.8C85.2101 118.42 86.3401 117.37 87.7701 116.98C88.2901 116.84 88.8202 116.76 89.3202 116.75H89.4201C90.6501 116.75 91.6002 117.14 92.1802 117.47C92.7202 117.78 93.0802 118.11 93.2502 118.33C92.8602 118.85 92.4802 119.39 92.1102 119.91C91.9402 120.16 91.7601 120.41 91.5901 120.66C90.7601 121.83 89.7302 123.1 88.4302 123.77C87.4002 124.3 85.8502 123.91 85.1402 122.95M94.1402 124.87C93.5501 124.97 92.5901 125.01 91.6301 124.81C91.0301 124.69 90.2502 124.44 89.8202 123.91C90.8402 123.13 91.6402 122.08 92.3002 121.17C92.4802 120.92 92.6601 120.67 92.8401 120.42C93.7701 119.08 94.7402 117.71 95.9802 116.67C97.0502 115.77 98.5501 115.42 100.1 115.7C100.98 115.86 101.91 116.6 102.36 117.5C101.44 118.14 100.56 119.08 99.7401 120.31C99.0901 121.28 98.3202 122.22 97.4302 123.07C97.3702 123.14 97.3102 123.2 97.2302 123.27C96.2602 124.17 95.2802 124.67 94.1502 124.87M106.15 109.37C106.06 109.46 104.14 109.66 103.88 110.31C103.68 110.31 102.01 107.75 102.1 107.38C102.23 106.86 105.3 105.4 105.43 105.53C105.27 106.2 106.42 109.05 106.15 109.36M102.32 111.27C101.61 111.11 100.86 111.08 100.12 111.18C99.5802 111.26 99.0202 111.41 98.4802 111.61C98.6702 111.35 98.8602 111.05 99.0402 110.73C99.4602 109.99 100.35 109 101 108.43C101.49 109.27 102.55 110.25 102.32 111.27ZM100.25 112.05C101.65 111.85 103.08 112.24 104.09 113.07C105.31 114.09 105.7 115.48 105.56 116.48C104.92 116.47 104.08 116.54 103.1 117.04C102.51 115.94 101.36 115.04 100.24 114.84C99.8401 114.77 99.4402 114.73 99.0402 114.73C98.4202 114.73 97.8002 114.82 97.2202 115C97.1502 114.52 96.9602 114.05 96.6802 113.65C97.6302 112.82 98.9501 112.22 100.24 112.04M100.9 125.15H100.53C99.1801 125.17 97.9102 124.65 97.3002 124.35C97.4702 124.21 97.6401 124.07 97.8101 123.91C97.9001 123.82 97.9702 123.76 98.0402 123.7C98.9602 122.79 99.7801 121.82 100.46 120.8C102.85 117.23 104.96 117.33 105.86 117.37C106.45 117.51 107.05 117.81 107.46 118.17C107.7 118.38 107.91 118.64 108.08 118.93C108.47 119.63 108.99 121.03 107.92 122.58C106.14 125.16 102.48 125.16 100.9 125.16M109.06 113.48C110.03 113.62 110.87 114.08 111.35 114.76C111.81 115.39 111.66 117.33 111.16 117.9C110.35 117.81 109.49 117.91 108.63 118.19C108.46 117.94 108.26 117.72 108.04 117.52C107.62 117.14 107.04 116.82 106.43 116.62C106.52 115.99 106.45 115.32 106.22 114.67C106.69 113.62 108.36 113.38 109.05 113.48M106.63 105.06C107.96 104.9 109.31 104.78 110.6 105.3C110.71 105.45 110.1 108.54 109.96 108.63C109.62 108.85 107.7 108.54 107.11 108.66L106.63 105.06ZM113.56 110.08L110.95 109.13C111.16 108.56 111.88 105.64 112.29 105.54C112.87 105.7 115.17 106.89 115.25 107.37L113.56 110.08ZM116.24 108.18C116.83 107.77 118.6 110.86 119.11 111.17C119.11 111.34 116.42 112.73 116.1 112.73C115.6 112.72 114.27 111.1 114.34 110.72C114.4 110.37 116.25 108.94 116.24 108.17M113.97 122.28C113.69 123.28 112.69 124.08 111.41 124.34C110.4 124.55 108.92 124.49 107.62 124.2C108.01 123.87 108.36 123.48 108.65 123.06C109.52 121.81 109.67 120.32 109.08 118.96C110.3 118.6 111.51 118.67 112.45 119.17C113.62 119.79 114.29 121.15 113.98 122.28M116.44 120.29C116.22 120.98 115.62 121.57 114.91 121.81C114.95 120.47 114.12 119.07 112.84 118.39C112.58 118.25 112.3 118.15 112.02 118.06C112.13 117.72 112.33 116.29 112.31 115.91C113.36 115.67 114.77 116.14 115.51 116.69C116.43 117.38 116.77 119.26 116.44 120.29ZM117.19 116.09C117.1 116.01 116.62 113.87 116.72 113.72C116.82 113.58 119.42 112.88 119.81 112.5L120.78 115.62C120.22 115.56 117.36 116.25 117.19 116.09ZM117.43 117.3C120.37 117.4 121.73 115.81 121.27 119.94L117.9 120.08L117.43 117.31V117.3ZM121.51 123.1C120.31 123.14 119.11 123.16 117.91 123.2V121.37H121.51V123.1ZM127.27 121.62C127.16 121.73 126.3 121.45 126.3 121.74L127.27 121.86V122.96C125.75 123 124.23 123.04 122.71 123.08V118.15C122.71 114.61 119.88 109.13 117.2 106.87C109.86 100.68 100.62 103.79 96.8101 112.03C96.6501 112.31 96.5501 112.54 96.4901 112.72C96.3501 112.83 96.2101 112.94 96.0702 113.06C95.7302 112.83 95.3502 112.65 94.9002 112.52C94.8802 111.65 94.7401 110.74 94.8801 110.59C94.9601 110.51 96.0301 110.65 96.3202 110.59C96.2901 110.12 95.4402 110.43 95.0402 110.32C94.4702 110.16 95.1002 108.83 94.6502 108.2C96.9802 108.42 97.0302 107.5 94.6502 107.72C94.2602 105.37 95.8701 106.14 97.5301 106.04C97.9201 105.75 97.5301 105.6 97.1701 105.56C96.7501 105.51 94.9701 105.65 94.8902 105.56V104.12H98.6102C98.6102 104.12 98.9902 103.8 98.9702 103.64H94.9002V102.2H99.7001V101.72H94.9002C94.8902 101.28 94.7902 100.72 95.2902 100.55C96.9902 100.46 98.8301 100.46 100.53 100.28C100.83 100.25 101.8 100.19 101.85 99.8H96.4501C96.1301 99.8 95.2302 99.31 94.6502 99.56C94.6402 99.41 94.9702 99.09 95.0102 99.09H127.28C127.23 99.41 127.36 100.69 127.28 100.77C127.19 100.86 125.15 101 124.77 101.02C122.27 101.18 119.69 100.78 117.2 101.13C120.51 101.72 123.92 101.43 127.27 101.5V103.18H120.55L124.27 103.66H127.26C127.21 104.56 127.66 105.82 126.42 105.82H122.46V106.06H127.26V107.26L124.38 107.37L127.26 107.49V109.65L124.86 109.76C124.86 110.07 127.14 109.76 127.26 109.88C127.35 109.97 127.35 112.43 127.26 112.52C127.15 112.63 126.06 112.35 126.06 112.64L127.26 112.76V113.96H125.11C125.3 114.81 127.11 114.28 127.26 114.44C127.42 114.59 127.05 118.11 127.26 118.76L125.82 118.88C125.82 119.17 127.15 118.88 127.26 118.99C127.35 119.08 127.36 121.54 127.26 121.63M132.94 97.63H107.27V96.19H132.94V97.63ZM139.28 112.5H134.08V105.07C134.08 103.64 135.25 102.47 136.68 102.47C137.4 102.47 138.05 102.76 138.52 103.23C138.99 103.7 139.28 104.35 139.28 105.07V112.5Z" fill="#CF6117"/>
<path d="M70.5 144.43C70.5 144.32 70.52 144.24 70.56 144.19C70.6 144.14 70.66 144.11 70.74 144.11H78.51C78.51 144.11 78.58 144.14 78.63 144.19C78.68 144.24 78.71 144.32 78.71 144.43L78.75 144.75C78.75 144.83 78.72 144.91 78.67 144.99C78.62 145.07 78.55 145.11 78.47 145.11C78.34 145.11 78.18 145.11 77.99 145.13C77.8 145.14 77.61 145.2 77.43 145.31C77.24 145.42 77.1 145.58 77.01 145.81C76.92 146.04 76.87 146.36 76.87 146.79V147.23C76.87 147.39 76.9 147.54 76.95 147.67L82.23 169.93L86.92 152.51C86.81 152.11 86.68 151.55 86.52 150.83C86.36 150.11 86.17 149.37 85.96 148.63C85.75 147.88 85.49 147.2 85.18 146.57C84.87 145.94 84.57 145.54 84.28 145.35C84.15 145.3 83.97 145.24 83.76 145.19C83.55 145.14 83.35 145.1 83.16 145.07C83.08 145.07 83.02 145.04 82.98 144.97C82.94 144.9 82.92 144.83 82.92 144.75V144.43C82.92 144.32 82.94 144.24 82.98 144.19C83.02 144.14 83.08 144.11 83.16 144.11H91.53C91.61 144.11 91.67 144.14 91.71 144.21C91.75 144.28 91.77 144.36 91.77 144.47L91.81 144.71C91.81 144.82 91.78 144.9 91.73 144.97C91.68 145.04 91.61 145.07 91.53 145.07C91.34 145.1 91.11 145.12 90.83 145.13C90.55 145.14 90.28 145.2 90.03 145.31C89.78 145.42 89.56 145.58 89.39 145.81C89.22 146.04 89.13 146.36 89.13 146.79V147.23C89.13 147.39 89.16 147.54 89.21 147.67L94.61 170.25L99.89 149.07C99.97 148.61 100.08 148.15 100.21 147.67C100.34 147.19 100.41 146.7 100.41 146.19C100.41 145.92 100.36 145.72 100.25 145.57C100.14 145.42 100.02 145.32 99.89 145.25C99.76 145.18 99.62 145.14 99.49 145.13C99.36 145.12 99.21 145.11 99.05 145.11C99 145.11 98.94 145.08 98.89 145.03C98.83 144.98 98.81 144.9 98.81 144.79V144.43C98.81 144.32 98.83 144.24 98.87 144.19C98.91 144.14 98.97 144.11 99.05 144.11H104.21C104.26 144.11 104.32 144.14 104.37 144.19C104.42 144.24 104.44 144.32 104.41 144.43V144.75C104.41 144.83 104.39 144.9 104.35 144.97C104.31 145.04 104.25 145.07 104.17 145.07C103.9 145.07 103.58 145.13 103.19 145.23C102.8 145.34 102.49 145.72 102.25 146.39C102.12 146.82 101.98 147.29 101.85 147.79C101.72 148.3 101.58 148.79 101.45 149.27L95.2 174.41C95.17 174.52 95.12 174.6 95.04 174.65C94.96 174.7 94.88 174.73 94.8 174.73L92.44 174.77C92.36 174.77 92.29 174.74 92.22 174.69C92.15 174.64 92.09 174.56 92.04 174.45L87.52 155.75L82.71 174.41C82.68 174.52 82.64 174.6 82.57 174.65C82.5 174.7 82.43 174.73 82.35 174.73L80.15 174.77C80.07 174.77 80 174.74 79.93 174.69C79.86 174.64 79.82 174.56 79.79 174.45L73.71 149.67C73.44 148.58 73.21 147.74 73.01 147.17C72.81 146.6 72.61 146.16 72.41 145.87C72.21 145.58 71.98 145.39 71.73 145.31C71.48 145.23 71.15 145.14 70.75 145.03C70.67 145.03 70.61 145 70.57 144.93C70.53 144.86 70.51 144.78 70.51 144.67V144.43H70.5Z" fill="#FFE3C2"/>
<path d="M104.29 171.05C104.5 171.53 104.78 171.91 105.11 172.19C105.44 172.47 105.81 172.65 106.21 172.73C106.61 172.81 106.98 172.8 107.33 172.69C107.97 172.48 108.52 172.12 108.97 171.63C109.42 171.14 109.84 170.65 110.21 170.17C110.18 169.77 110.18 169.34 110.19 168.89C110.2 168.44 110.21 168.02 110.21 167.65C110.21 166.53 110.23 165.49 110.27 164.53C110.31 163.57 110.36 162.53 110.41 161.41C110.2 162 109.9 162.51 109.51 162.93C109.12 163.36 108.69 163.76 108.23 164.13C107.76 164.5 107.3 164.87 106.83 165.21C106.36 165.56 105.93 165.93 105.53 166.33C105.13 166.73 104.79 167.17 104.53 167.65C104.26 168.13 104.1 168.69 104.05 169.33C104 170 104.08 170.57 104.29 171.05ZM115.48 173.14C114.96 174.16 114.12 174.7 112.98 174.78C112.53 174.81 112.15 174.72 111.84 174.52C111.53 174.32 111.28 174.06 111.08 173.74C110.88 173.42 110.72 173.06 110.6 172.66C110.48 172.26 110.42 171.89 110.42 171.54C110.15 171.97 109.83 172.39 109.46 172.8C109.09 173.21 108.66 173.59 108.18 173.92C107.7 174.25 107.17 174.51 106.6 174.7C106.03 174.89 105.42 174.95 104.78 174.9C104.19 174.9 103.64 174.75 103.12 174.46C102.6 174.17 102.15 173.77 101.76 173.26C101.37 172.75 101.09 172.16 100.92 171.48C100.75 170.8 100.7 170.05 100.78 169.22C100.89 168.15 101.14 167.33 101.54 166.74C101.94 166.15 102.42 165.68 102.98 165.32C103.54 164.96 104.16 164.67 104.84 164.44C105.52 164.21 106.2 163.93 106.86 163.6C107.53 163.27 108.14 162.83 108.7 162.28C109.26 161.73 109.73 160.97 110.1 159.98C110.18 159.77 110.23 159.61 110.26 159.5C110.29 159.39 110.3 159.22 110.3 158.98V157.62C110.3 157.06 110.22 156.51 110.06 155.96C109.9 155.41 109.61 154.95 109.2 154.58C108.79 154.21 108.17 154.06 107.34 154.14C107.07 154.17 106.77 154.25 106.44 154.38C106.11 154.51 105.79 154.71 105.5 154.98C105.21 155.25 104.96 155.57 104.76 155.94C104.56 156.31 104.46 156.76 104.46 157.26C104.46 157.53 104.48 157.76 104.52 157.96C104.56 158.16 104.63 158.34 104.72 158.5C104.81 158.66 104.89 158.84 104.96 159.04C105.03 159.24 105.07 159.47 105.1 159.74C105.15 160.03 105.13 160.31 105.04 160.58C104.95 160.85 104.83 161.09 104.7 161.32C104.57 161.55 104.41 161.74 104.22 161.9C104.03 162.06 103.81 162.19 103.54 162.3C103.19 162.43 102.86 162.46 102.56 162.38C102.25 162.3 102.01 162.13 101.82 161.86C101.63 161.59 101.48 161.25 101.36 160.84C101.24 160.43 101.18 159.97 101.18 159.46C101.18 158.23 101.39 157.2 101.82 156.38C102.25 155.55 102.79 154.88 103.44 154.36C104.09 153.84 104.83 153.47 105.64 153.24C106.45 153.01 107.26 152.91 108.06 152.94C109.05 152.97 109.9 153.15 110.62 153.5C111.34 153.85 111.92 154.35 112.36 155C112.8 155.65 113.14 156.46 113.36 157.42C113.59 158.38 113.7 159.46 113.7 160.66C113.7 162.18 113.67 163.7 113.62 165.2C113.57 166.71 113.54 168.22 113.54 169.74C113.54 169.9 113.54 170.09 113.56 170.32C113.57 170.55 113.61 170.77 113.66 171C113.71 171.23 113.8 171.41 113.92 171.54C114.04 171.67 114.18 171.73 114.34 171.7C114.61 171.7 114.81 171.61 114.96 171.44C115.11 171.27 115.23 171.05 115.32 170.78C115.41 170.51 115.47 170.22 115.48 169.9C115.49 169.58 115.5 169.3 115.5 169.06C115.5 168.95 115.51 168.87 115.54 168.82C115.57 168.77 115.63 168.74 115.74 168.74L116.1 168.78C116.18 168.78 116.24 168.81 116.28 168.88C116.32 168.95 116.34 169.03 116.34 169.14C116.29 170.79 116 172.13 115.48 173.14Z" fill="#FFE3C2"/>
<path d="M118.62 153.48V149.92C118.62 149.84 118.63 149.75 118.66 149.64C118.69 149.53 118.74 149.45 118.82 149.4L121.74 147.12C121.79 147.07 121.84 147.06 121.88 147.1C121.92 147.14 121.94 147.2 121.94 147.28V153.49H125.34C125.39 153.49 125.45 153.52 125.5 153.59C125.55 153.66 125.58 153.73 125.58 153.81V154.57C125.58 154.65 125.55 154.72 125.5 154.79C125.45 154.86 125.39 154.89 125.34 154.89H121.94V168.6C121.94 169.33 121.99 170.06 122.08 170.78C122.17 171.5 122.34 172.13 122.58 172.66C122.82 173.19 123.18 173.43 123.66 173.38C124.09 173.35 124.44 173.17 124.72 172.82C125 172.47 125.22 172.06 125.38 171.58C125.54 171.1 125.65 170.59 125.72 170.04C125.79 169.49 125.85 169.02 125.9 168.62C125.9 168.51 125.93 168.42 126 168.34C126.07 168.26 126.14 168.22 126.22 168.22L126.62 168.14C126.7 168.14 126.77 168.17 126.82 168.22C126.87 168.27 126.9 168.35 126.9 168.46C126.84 169.53 126.74 170.49 126.58 171.34C126.42 172.19 126.16 172.91 125.8 173.48C125.44 174.06 124.99 174.48 124.46 174.76C123.93 175.04 123.29 175.15 122.54 175.1C121.79 175.07 121.17 174.89 120.68 174.54C120.19 174.19 119.79 173.71 119.48 173.1C119.17 172.49 118.95 171.74 118.82 170.86C118.69 169.98 118.62 168.98 118.62 167.86V154.89H116.74C116.66 154.89 116.6 154.86 116.54 154.79C116.49 154.72 116.46 154.65 116.46 154.57V153.81C116.46 153.73 116.49 153.66 116.54 153.59C116.6 153.52 116.66 153.49 116.74 153.49H118.62V153.48Z" fill="#FFE3C2"/>
<path d="M142.7 170.37C142.23 171.41 141.65 172.29 140.96 173.01C140.27 173.73 139.48 174.27 138.6 174.63C137.72 174.99 136.77 175.13 135.76 175.05C134.48 175 133.39 174.62 132.5 173.93C131.61 173.24 130.88 172.38 130.32 171.37C129.76 170.36 129.35 169.25 129.1 168.05C128.85 166.85 128.73 165.71 128.76 164.65C128.79 162.97 128.97 161.43 129.32 160.03C129.67 158.63 130.17 157.42 130.84 156.41C131.51 155.4 132.32 154.6 133.28 154.03C134.24 153.46 135.34 153.17 136.56 153.17C137.17 153.17 137.82 153.29 138.5 153.53C139.18 153.77 139.83 154.14 140.46 154.65C141.09 155.16 141.63 155.78 142.1 156.53C142.57 157.28 142.84 158.16 142.92 159.17C143 159.7 142.98 160.18 142.86 160.59C142.74 161 142.59 161.37 142.4 161.67C142.21 161.98 141.97 162.2 141.68 162.35C141.39 162.5 141.09 162.54 140.8 162.49C140.48 162.44 140.23 162.35 140.04 162.23C139.85 162.11 139.68 161.95 139.54 161.75C139.39 161.55 139.29 161.32 139.22 161.07C139.15 160.82 139.11 160.54 139.08 160.25C139.05 159.96 139.06 159.7 139.1 159.47C139.14 159.24 139.2 159.03 139.28 158.83C139.36 158.63 139.44 158.42 139.52 158.21C139.6 158 139.64 157.77 139.64 157.53C139.64 157.21 139.55 156.88 139.38 156.53C139.21 156.18 138.99 155.87 138.72 155.59C138.45 155.31 138.14 155.07 137.78 154.87C137.42 154.67 137.05 154.55 136.68 154.53C136.17 154.5 135.68 154.62 135.2 154.89C134.72 155.16 134.27 155.59 133.86 156.19C133.45 156.79 133.1 157.58 132.82 158.55C132.54 159.52 132.37 160.72 132.32 162.13C132.26 163.71 132.36 165.15 132.6 166.45C132.84 167.76 133.22 168.88 133.74 169.81C134.26 170.74 134.91 171.44 135.68 171.89C136.45 172.34 137.35 172.49 138.36 172.33C138.95 172.25 139.47 172.05 139.94 171.73C140.41 171.41 140.83 171.01 141.2 170.53C141.57 170.05 141.89 169.5 142.14 168.87C142.39 168.24 142.6 167.58 142.76 166.89C142.79 166.81 142.83 166.74 142.88 166.69C142.93 166.64 143 166.61 143.08 166.61L143.36 166.57C143.44 166.57 143.5 166.6 143.54 166.65C143.58 166.7 143.6 166.78 143.6 166.89C143.47 168.17 143.17 169.33 142.7 170.37Z" fill="#FFE3C2"/>
<path d="M143.84 173.98C143.84 173.87 143.86 173.79 143.9 173.72C143.94 173.65 144 173.62 144.08 173.62H144.62C144.85 173.62 145.06 173.53 145.26 173.34C145.46 173.15 145.63 172.83 145.76 172.36C145.89 171.89 145.96 171.22 145.96 170.34C145.91 168.29 145.87 166.34 145.86 164.51C145.85 162.68 145.85 160.87 145.86 159.07C145.87 157.27 145.88 155.45 145.88 153.61V147.8C145.88 147.4 145.81 146.98 145.66 146.54C145.51 146.1 145.25 145.89 144.88 145.92C144.72 145.92 144.6 145.93 144.52 145.96C144.47 145.96 144.41 145.93 144.36 145.88C144.31 145.83 144.28 145.75 144.28 145.64V145.12C144.28 145.01 144.3 144.92 144.34 144.84C144.38 144.76 144.44 144.69 144.52 144.64C144.68 144.56 144.92 144.45 145.24 144.3C145.56 144.15 145.88 144.01 146.2 143.88C146.52 143.75 146.81 143.62 147.08 143.5C147.35 143.38 147.52 143.31 147.6 143.28C147.79 143.23 147.99 143.16 148.22 143.08C148.45 143 148.65 142.93 148.84 142.88C148.95 142.83 149.03 142.83 149.1 142.9C149.17 142.97 149.2 143.07 149.2 143.2C149.23 143.58 149.25 144.14 149.26 144.88C149.27 145.63 149.28 146.45 149.28 147.34V150.14C149.28 151.12 149.28 152.03 149.26 152.88C149.25 153.73 149.24 154.47 149.24 155.08V156.28C149.69 155.42 150.28 154.73 151 154.2C151.72 153.67 152.62 153.36 153.68 153.28C154.61 153.23 155.46 153.39 156.22 153.76C156.98 154.13 157.6 154.69 158.08 155.44C158.56 156.19 158.93 157.09 159.2 158.14C159.47 159.19 159.6 160.38 159.6 161.68L159.64 170.21V171.05C159.64 171.32 159.65 171.58 159.68 171.85C159.79 172.62 159.99 173.1 160.3 173.29C160.61 173.48 161.03 173.61 161.56 173.69C161.64 173.72 161.69 173.76 161.72 173.81C161.75 173.86 161.76 173.94 161.76 174.05V174.45C161.76 174.56 161.75 174.64 161.72 174.69C161.69 174.74 161.64 174.77 161.56 174.77H154.95C154.87 174.77 154.81 174.74 154.77 174.69C154.73 174.64 154.71 174.56 154.71 174.45V174.01C154.71 173.9 154.73 173.83 154.77 173.79C154.81 173.75 154.86 173.73 154.91 173.73C155.31 173.73 155.58 173.6 155.73 173.35C155.88 173.1 156 172.79 156.09 172.43C156.18 172.07 156.23 171.68 156.23 171.27V170.17C156.23 169.29 156.23 168.51 156.21 167.83C156.2 167.15 156.19 166.54 156.19 165.99V162.89C156.22 161.69 156.18 160.59 156.07 159.59C155.96 158.59 155.79 157.75 155.55 157.07C155.31 156.39 154.98 155.89 154.55 155.57C154.12 155.25 153.57 155.14 152.91 155.25C152.19 155.33 151.6 155.58 151.15 155.99C150.69 156.4 150.33 156.88 150.05 157.43C149.77 157.98 149.56 158.54 149.43 159.11C149.3 159.68 149.23 160.2 149.23 160.65V170.3C149.23 170.65 149.23 171.12 149.25 171.72C149.26 172.32 149.32 172.77 149.43 173.06C149.56 173.38 149.76 173.57 150.01 173.62C150.26 173.67 150.48 173.7 150.67 173.7C150.75 173.7 150.81 173.73 150.85 173.78C150.89 173.83 150.91 173.91 150.91 174.02V174.46C150.91 174.57 150.89 174.65 150.85 174.7C150.81 174.75 150.75 174.78 150.67 174.78H144.06C143.98 174.78 143.92 174.75 143.88 174.7C143.84 174.65 143.82 174.57 143.82 174.46V173.98H143.84Z" fill="#FFE3C2"/>
<path d="M87.9502 178.41C87.9502 178.33 87.9702 178.26 88.0102 178.19C88.0502 178.12 88.1102 178.09 88.1902 178.09H94.7202C94.8302 178.09 94.9002 178.12 94.9402 178.19C94.9802 178.26 95.0002 178.34 95.0002 178.45V178.77C95.0002 178.82 94.9802 178.88 94.9402 178.93C94.9002 178.98 94.8702 179.02 94.8402 179.05C94.6802 179.1 94.5102 179.14 94.3202 179.17C94.1302 179.2 93.9502 179.28 93.7802 179.41C93.6102 179.54 93.4602 179.77 93.3402 180.09C93.2202 180.41 93.1602 180.89 93.1602 181.53L93.1202 207.15L96.7202 207.19C98.1902 207.22 99.3202 207.02 100.1 206.61C100.89 206.2 101.48 205.7 101.88 205.11C102.28 204.52 102.54 203.92 102.66 203.29C102.78 202.66 102.88 202.14 102.96 201.71C102.99 201.63 103.04 201.56 103.12 201.51C103.2 201.46 103.28 201.43 103.36 201.43H103.52C103.63 201.43 103.7 201.46 103.74 201.53C103.78 201.6 103.79 201.68 103.76 201.79C103.73 202.14 103.67 202.68 103.58 203.43C103.49 204.18 103.39 204.93 103.28 205.69C103.17 206.45 103.09 207.12 103.02 207.69C102.95 208.26 102.91 208.56 102.88 208.59C102.85 208.64 102.53 208.68 101.9 208.71C101.27 208.74 100.49 208.76 99.5402 208.77C98.5902 208.78 97.5502 208.79 96.4202 208.79C95.2902 208.79 94.1802 208.79 93.1002 208.77C92.0202 208.76 91.0202 208.75 90.1202 208.75H88.1202C88.0602 208.75 88.0202 208.73 88.0002 208.69C87.9702 208.65 87.9602 208.6 87.9602 208.55V208.03C87.9602 207.98 87.9702 207.93 88.0002 207.89C88.0302 207.85 88.0702 207.83 88.1202 207.83C88.2502 207.8 88.4102 207.78 88.6002 207.75C88.7902 207.72 88.9702 207.64 89.1602 207.49C89.3502 207.34 89.5002 207.1 89.6202 206.77C89.7402 206.44 89.8002 205.96 89.8002 205.35V181.53C89.8002 180.92 89.7402 180.45 89.6202 180.13C89.5002 179.81 89.3502 179.57 89.1802 179.41C89.0102 179.25 88.8302 179.15 88.6402 179.11C88.4502 179.07 88.3102 179.05 88.2002 179.05C88.1202 179.02 88.0602 178.98 88.0202 178.93C87.9802 178.88 87.9602 178.8 87.9602 178.69V178.41H87.9502Z" fill="#FFE3C2"/>
<path d="M107.99 184.64C107.74 184.49 107.52 184.29 107.33 184.02C107.14 183.75 107 183.44 106.89 183.08C106.78 182.72 106.73 182.35 106.73 181.98C106.73 181.61 106.78 181.24 106.89 180.88C107 180.52 107.14 180.21 107.33 179.96C107.52 179.71 107.74 179.5 108.01 179.34C108.28 179.18 108.57 179.1 108.89 179.1C109.18 179.1 109.46 179.18 109.71 179.34C109.96 179.5 110.18 179.71 110.37 179.98C110.56 180.25 110.7 180.55 110.81 180.9C110.92 181.25 110.97 181.61 110.97 181.98C110.97 182.38 110.92 182.75 110.81 183.1C110.7 183.45 110.56 183.75 110.37 184.02C110.18 184.29 109.96 184.49 109.71 184.64C109.46 184.79 109.18 184.86 108.89 184.86C108.54 184.86 108.24 184.79 107.99 184.64ZM110.89 190.44V202.87C110.89 203.08 110.89 203.36 110.87 203.69C110.86 204.02 110.86 204.37 110.87 204.73C110.88 205.09 110.91 205.44 110.95 205.77C110.99 206.1 111.05 206.39 111.13 206.63C111.26 206.95 111.43 207.18 111.63 207.31C111.83 207.44 112.02 207.53 112.21 207.57C112.4 207.61 112.56 207.64 112.71 207.67C112.86 207.7 112.96 207.75 113.01 207.83V208.55L112.93 208.63C112.88 208.66 112.84 208.68 112.83 208.69C112.82 208.7 112.78 208.71 112.73 208.71H105.72C105.67 208.71 105.6 208.68 105.52 208.63L105.48 208.55C105.45 208.47 105.44 208.35 105.44 208.19V207.99C105.44 207.91 105.45 207.84 105.48 207.79C105.53 207.71 105.63 207.66 105.78 207.65C105.93 207.64 106.09 207.61 106.26 207.57C106.43 207.53 106.61 207.46 106.8 207.35C106.99 207.24 107.15 207.04 107.28 206.75C107.39 206.53 107.46 206.26 107.5 205.93C107.54 205.6 107.56 205.24 107.56 204.87V202.87C107.56 201.86 107.56 200.86 107.54 199.89C107.53 198.92 107.52 197.92 107.52 196.91V193.09C107.52 192.65 107.51 192.27 107.48 191.95C107.45 191.63 107.41 191.4 107.36 191.27C107.25 190.95 107.13 190.75 106.98 190.67C106.83 190.59 106.57 190.56 106.2 190.59C106.12 190.59 106.05 190.56 105.98 190.49C105.91 190.42 105.88 190.32 105.88 190.19V189.63C105.88 189.5 105.91 189.38 105.98 189.29C106.05 189.2 106.12 189.14 106.2 189.11L110.56 187.43C110.67 187.4 110.74 187.42 110.8 187.47C110.85 187.52 110.88 187.6 110.88 187.71V190.45L110.89 190.44Z" fill="#FFE3C2"/>
<path d="M113.17 187.66C113.17 187.55 113.2 187.46 113.25 187.38C113.3 187.3 113.36 187.25 113.41 187.22C113.7 187.19 114.12 187.17 114.65 187.14C115.18 187.11 115.71 187.1 116.23 187.1H117.53C117.88 187.1 117.98 187.09 117.85 187.06C117.98 187.06 118.07 187.09 118.11 187.16C118.15 187.23 118.19 187.31 118.25 187.42L123.13 204.79L126.61 194.98C126.69 194.69 126.76 194.38 126.83 194.06C126.9 193.74 126.93 193.41 126.93 193.06C126.93 192.61 126.86 192.23 126.73 191.94C126.6 191.65 126.45 191.36 126.29 191.08C126.13 190.8 125.98 190.5 125.85 190.18C125.72 189.86 125.65 189.43 125.65 188.9C125.65 188.13 125.81 187.55 126.13 187.18C126.45 186.8 126.86 186.59 127.37 186.54C127.96 186.46 128.42 186.64 128.77 187.08C129.12 187.52 129.29 188.1 129.29 188.82C129.29 189.59 129.18 190.36 128.97 191.1C128.76 191.85 128.53 192.57 128.29 193.26L123 208.47C122.94 208.55 122.89 208.62 122.82 208.67C122.75 208.72 122.68 208.75 122.6 208.75H120.92C120.81 208.75 120.71 208.7 120.62 208.61C120.53 208.52 120.46 208.4 120.44 208.27L116.04 192.3C115.99 192.06 115.88 191.73 115.72 191.32C115.56 190.91 115.39 190.49 115.22 190.08C115.04 189.67 114.84 189.31 114.62 189.02C114.39 188.73 114.17 188.58 113.96 188.58C113.91 188.58 113.83 188.58 113.74 188.6C113.65 188.61 113.55 188.62 113.44 188.62C113.36 188.62 113.3 188.59 113.26 188.54C113.22 188.49 113.19 188.41 113.16 188.3V187.66H113.17Z" fill="#FFE3C2"/>
<path d="M135.61 198.35C136.1 198.32 136.62 198.28 137.15 198.23C137.68 198.18 138.23 198.08 138.79 197.93C139.35 197.78 139.86 197.58 140.33 197.31C140.8 197.04 141.19 196.68 141.51 196.23C141.83 195.78 142.04 195.2 142.15 194.51C142.23 193.9 142.2 193.24 142.07 192.55C141.94 191.86 141.72 191.21 141.41 190.61C141.1 190.01 140.72 189.52 140.27 189.15C139.81 188.78 139.29 188.59 138.71 188.59C137.96 188.59 137.33 188.82 136.83 189.27C136.32 189.72 135.9 190.28 135.57 190.95C135.24 191.62 134.97 192.34 134.79 193.11C134.6 193.88 134.48 194.59 134.43 195.23C134.38 195.68 134.34 196.21 134.33 196.79C134.32 197.38 134.33 197.92 134.39 198.43C134.71 198.4 135.12 198.38 135.61 198.35ZM145.08 204.33C144.65 205.36 144.1 206.22 143.42 206.93C142.74 207.64 141.95 208.18 141.06 208.55C140.16 208.92 139.21 209.11 138.2 209.11C137 209.11 135.94 208.85 135.02 208.33C134.1 207.81 133.33 207.08 132.7 206.15C132.07 205.22 131.6 204.12 131.28 202.85C130.96 201.58 130.79 200.21 130.76 198.75C130.73 197.1 130.9 195.56 131.26 194.15C131.62 192.73 132.14 191.51 132.8 190.49C133.47 189.46 134.29 188.66 135.26 188.09C136.24 187.52 137.35 187.23 138.6 187.23C139.35 187.23 140.15 187.4 141 187.75C141.85 188.1 142.63 188.6 143.32 189.25C144.01 189.9 144.57 190.72 144.98 191.69C145.39 192.67 145.55 193.78 145.44 195.03C145.39 195.89 145.13 196.6 144.68 197.17C144.23 197.74 143.67 198.21 143 198.55C142.33 198.9 141.58 199.16 140.76 199.33C139.93 199.5 139.12 199.62 138.32 199.67C137.52 199.72 136.77 199.74 136.08 199.71C135.39 199.68 134.85 199.66 134.48 199.63C134.59 200.35 134.75 201.1 134.98 201.89C135.21 202.68 135.53 203.41 135.96 204.09C136.39 204.77 136.93 205.33 137.58 205.75C138.23 206.18 139.04 206.39 140 206.39C140.51 206.39 141.02 206.26 141.54 206.01C142.06 205.76 142.55 205.4 143 204.95C143.45 204.49 143.86 203.93 144.22 203.25C144.58 202.57 144.85 201.8 145.04 200.95C145.07 200.84 145.11 200.77 145.16 200.71C145.21 200.66 145.28 200.62 145.36 200.59L145.76 200.55C145.84 200.52 145.9 200.54 145.94 200.59C145.98 200.64 146 200.72 146 200.83C145.81 202.14 145.51 203.31 145.08 204.33Z" fill="#FFE3C2"/>
<path d="M126.22 247.11L115.01 254C113.81 254.74 112.27 253.9 112.23 252.5L111.87 239.35C111.83 237.95 113.33 237.03 114.56 237.7L126.13 243.96C127.37 244.63 127.41 246.38 126.22 247.12M133.42 245.87C133.42 237.32 126.49 230.38 117.93 230.38C109.37 230.38 102.44 237.31 102.44 245.87C102.44 254.43 109.37 261.36 117.93 261.36C126.49 261.36 133.42 254.43 133.42 245.87Z" fill="#91A6CC"/>
</g>
<path d="M41.1501 161.11H25.6401V157.74H31.7901V150.87H25.6401V147.5H41.1501V150.87H34.6401V157.74H41.1501V161.11Z" fill="#FFE3C2"/>
<mask id="mask3_4054_1710" style="mask-type:luminance" maskUnits="userSpaceOnUse" x="9" y="8" width="218" height="323">
<path d="M226.98 8H9V330.83H226.98V8Z" fill="white"/>
</mask>
<g mask="url(#mask3_4054_1710)">
<path d="M35.3801 133.53V128.71L31.5601 130.09C31.3901 130.15 31.2001 130.22 30.9601 130.3C30.7301 130.38 30.4701 130.47 30.1801 130.56C29.8901 130.65 29.6101 130.74 29.3301 130.82C29.0501 130.9 28.8001 130.98 28.5701 131.06V131.2C28.8601 131.28 29.1901 131.37 29.5801 131.49C29.9601 131.61 30.3301 131.73 30.6901 131.85C31.0501 131.97 31.3301 132.07 31.5601 132.14L35.3801 133.52V133.53ZM41.1501 139.09L25.6401 133.12V128.96L41.1501 122.99V126.63L38.1001 127.74V134.5L41.1501 135.61V139.09Z" fill="#FFE3C2"/>
</g>
<path d="M40.9802 114.96L25.4902 114.17L26.0702 102.75L28.8302 102.89L28.4202 110.95L32.2602 111.14L32.6202 103.94L35.3602 104.08L34.9902 111.29L41.1502 111.6L40.9802 114.96Z" fill="#FFE3C2"/>
<mask id="mask4_4054_1710" style="mask-type:luminance" maskUnits="userSpaceOnUse" x="9" y="8" width="218" height="323">
<path d="M226.98 8H9V330.83H226.98V8Z" fill="white"/>
</mask>
<g mask="url(#mask4_4054_1710)">
<path d="M35.9098 90.69L37.3398 86.23C37.5498 85.58 37.5098 85.02 37.2298 84.53C36.9498 84.04 36.4698 83.69 35.7998 83.48C35.3698 83.34 34.9698 83.3 34.6198 83.36C34.2598 83.42 33.9498 83.57 33.6998 83.82C33.4498 84.07 33.2498 84.42 33.0998 84.86L31.6698 89.32L35.9098 90.68V90.69ZM42.7998 96.44L28.0298 91.7L30.6298 83.61C30.9798 82.52 31.4698 81.67 32.0898 81.07C32.7098 80.47 33.4298 80.1 34.2398 79.97C35.0498 79.84 35.9098 79.91 36.8098 80.2C37.7698 80.51 38.5498 81 39.1498 81.66C39.7498 82.33 40.1098 83.13 40.2398 84.08L47.1298 82.97L45.9898 86.52L39.7698 87.4L38.4498 91.51L43.8298 93.24L42.7998 96.45V96.44Z" fill="#FFE3C2"/>
<path d="M47.63 70.34L50.29 66.32L46.34 65.37C46.17 65.33 45.96 65.28 45.72 65.22C45.48 65.16 45.21 65.09 44.93 65.01C44.64 64.93 44.36 64.84 44.08 64.76C43.8 64.68 43.55 64.6 43.32 64.54L43.25 64.65C43.45 64.87 43.67 65.14 43.93 65.45C44.18 65.76 44.43 66.07 44.65 66.36C44.88 66.66 45.07 66.9 45.21 67.09L47.64 70.35L47.63 70.34ZM49.38 78.16L39.73 64.63L42.02 61.16L58.25 64.73L56.24 67.77L53.08 67.01L49.35 72.65L51.29 75.26L49.37 78.17L49.38 78.16Z" fill="#FFE3C2"/>
<path d="M67.3699 56.26C66.6899 56.86 65.9899 57.36 65.2599 57.76C64.5299 58.16 63.7999 58.42 63.0699 58.54C62.3399 58.66 61.6299 58.6 60.9699 58.38C60.2999 58.16 59.6799 57.72 59.0999 57.06C59.0499 57 58.9999 56.95 58.9399 56.88C58.8899 56.82 58.8499 56.76 58.8299 56.72L61.3399 54.5C61.3399 54.5 61.3899 54.59 61.4399 54.65C61.4899 54.71 61.5399 54.76 61.5799 54.8C61.8999 55.16 62.2699 55.38 62.6899 55.45C63.1099 55.52 63.5599 55.45 64.0599 55.24C64.5499 55.03 65.0499 54.69 65.5599 54.24C65.8899 53.95 66.1599 53.67 66.3799 53.41C66.5999 53.15 66.7699 52.89 66.9099 52.64C67.0399 52.39 67.1299 52.16 67.1699 51.94C67.2099 51.72 67.1999 51.52 67.1399 51.33C67.0799 51.14 66.9799 50.96 66.8299 50.79C66.5599 50.49 66.2399 50.33 65.8799 50.31C65.5099 50.29 65.0999 50.37 64.6299 50.54C64.1699 50.71 63.6699 50.93 63.1399 51.19C62.6099 51.46 62.0699 51.73 61.5099 52.01C60.9499 52.29 60.3799 52.53 59.7999 52.74C59.2199 52.95 58.6399 53.07 58.0899 53.12C57.5299 53.17 56.9799 53.1 56.4399 52.89C55.8999 52.69 55.3799 52.31 54.9099 51.77C54.3999 51.19 54.0799 50.59 53.9599 49.96C53.8299 49.33 53.8699 48.68 54.0699 48.02C54.2699 47.36 54.5999 46.71 55.0599 46.07C55.5199 45.43 56.0899 44.81 56.7699 44.21C57.3999 43.65 58.0599 43.19 58.7399 42.82C59.4199 42.45 60.0999 42.22 60.7799 42.12C61.4599 42.02 62.1099 42.08 62.7299 42.3C63.3499 42.51 63.9199 42.91 64.4399 43.5L64.6199 43.7L62.1599 45.87L62.0399 45.73C61.7699 45.42 61.4499 45.25 61.0799 45.19C60.7099 45.14 60.3099 45.19 59.8699 45.36C59.4299 45.53 58.9899 45.8 58.5499 46.19C58.0799 46.61 57.7099 47.01 57.4599 47.4C57.2099 47.78 57.0699 48.14 57.0499 48.47C57.0299 48.8 57.1299 49.08 57.3299 49.32C57.5699 49.59 57.8699 49.73 58.2199 49.73C58.5699 49.73 58.9799 49.64 59.4399 49.47C59.8999 49.3 60.3899 49.07 60.9099 48.79C61.4299 48.51 61.9699 48.24 62.5299 47.96C63.0899 47.69 63.6599 47.44 64.2399 47.23C64.8199 47.02 65.3899 46.89 65.9499 46.85C66.5099 46.8 67.0599 46.88 67.5899 47.07C68.1199 47.26 68.6199 47.62 69.0799 48.14C69.8699 49.03 70.2899 49.94 70.3399 50.86C70.3899 51.78 70.1499 52.7 69.6299 53.6C69.0999 54.51 68.3599 55.39 67.3999 56.23" fill="#FFE3C2"/>
</g>
<path d="M78.1601 47.63L71.3301 33.7L74.3601 32.22L77.0601 37.74L83.2301 34.72L80.5301 29.19L83.5501 27.71L90.3801 41.64L87.3501 43.12L84.4901 37.27L78.3201 40.3L81.1801 46.15L78.1601 47.63Z" fill="#FFE3C2"/>
<mask id="mask5_4054_1710" style="mask-type:luminance" maskUnits="userSpaceOnUse" x="9" y="8" width="218" height="323">
<path d="M226.98 8H9V330.83H226.98V8Z" fill="white"/>
</mask>
<g mask="url(#mask5_4054_1710)">
<path d="M100.77 32.84L105.51 31.98L103.47 28.47C103.38 28.32 103.28 28.13 103.15 27.92C103.03 27.71 102.9 27.47 102.75 27.2C102.61 26.93 102.48 26.67 102.34 26.41C102.21 26.15 102.09 25.92 101.97 25.71L101.84 25.74C101.82 26.03 101.78 26.38 101.73 26.78C101.68 27.18 101.63 27.57 101.57 27.93C101.51 28.29 101.47 28.6 101.44 28.84L100.76 32.85L100.77 32.84ZM96.3201 39.51L99.4301 23.18L103.52 22.44L112.15 36.64L108.57 37.29L106.94 34.48L100.29 35.68L99.7401 38.88L96.3101 39.5L96.3201 39.51Z" fill="#FFE3C2"/>
<path d="M124.6 37.41C123.7 37.33 122.85 37.17 122.06 36.92C121.26 36.67 120.57 36.32 119.98 35.87C119.39 35.42 118.95 34.87 118.65 34.24C118.35 33.6 118.23 32.85 118.31 31.98C118.31 31.9 118.32 31.83 118.33 31.74C118.33 31.66 118.35 31.59 118.37 31.55L121.7 31.84C121.7 31.84 121.67 31.94 121.66 32.02C121.66 32.1 121.65 32.16 121.64 32.22C121.6 32.7 121.7 33.12 121.93 33.47C122.17 33.82 122.53 34.1 123.03 34.31C123.53 34.52 124.11 34.65 124.79 34.71C125.23 34.75 125.61 34.75 125.96 34.73C126.3 34.71 126.61 34.66 126.88 34.58C127.15 34.5 127.38 34.41 127.56 34.29C127.74 34.17 127.88 34.02 127.98 33.85C128.08 33.68 128.14 33.48 128.16 33.25C128.2 32.84 128.09 32.5 127.85 32.22C127.61 31.94 127.27 31.69 126.82 31.47C126.38 31.25 125.88 31.04 125.32 30.84C124.76 30.64 124.19 30.44 123.6 30.23C123.01 30.02 122.44 29.78 121.89 29.5C121.34 29.22 120.85 28.89 120.43 28.52C120.01 28.15 119.68 27.7 119.46 27.17C119.23 26.64 119.15 26.01 119.21 25.29C119.28 24.52 119.49 23.88 119.86 23.35C120.23 22.82 120.73 22.4 121.34 22.09C121.96 21.78 122.66 21.57 123.44 21.46C124.22 21.35 125.06 21.34 125.96 21.42C126.8 21.49 127.59 21.65 128.33 21.88C129.07 22.12 129.7 22.45 130.24 22.87C130.78 23.3 131.18 23.81 131.46 24.4C131.73 25 131.84 25.69 131.77 26.47L131.75 26.74L128.48 26.46L128.5 26.28C128.53 25.87 128.44 25.52 128.23 25.21C128.01 24.9 127.7 24.65 127.27 24.45C126.85 24.25 126.35 24.12 125.76 24.07C125.13 24.02 124.59 24.03 124.13 24.11C123.67 24.19 123.32 24.34 123.07 24.55C122.82 24.76 122.68 25.03 122.65 25.34C122.62 25.7 122.73 26.01 122.97 26.26C123.21 26.52 123.56 26.75 124 26.96C124.44 27.17 124.94 27.37 125.5 27.55C126.06 27.73 126.63 27.93 127.22 28.15C127.81 28.37 128.37 28.61 128.93 28.89C129.48 29.16 129.97 29.49 130.39 29.87C130.81 30.25 131.14 30.69 131.36 31.21C131.59 31.73 131.67 32.33 131.61 33.02C131.51 34.21 131.14 35.14 130.51 35.81C129.88 36.48 129.05 36.94 128.03 37.19C127.01 37.44 125.86 37.5 124.59 37.39" fill="#FFE3C2"/>
<path d="M153.75 46.04C152.32 45.29 151.23 44.4 150.48 43.36C149.73 42.33 149.37 41.14 149.4 39.81C149.43 38.48 149.87 37 150.72 35.37C151.98 32.97 153.51 31.49 155.31 30.95C157.1 30.4 159.07 30.69 161.22 31.83C162.39 32.45 163.34 33.2 164.07 34.09C164.79 34.98 165.21 35.97 165.33 37.05C165.45 38.13 165.19 39.28 164.55 40.5L161.55 38.92C161.89 38.28 162.04 37.67 162.01 37.09C161.98 36.51 161.79 35.98 161.44 35.5C161.09 35.02 160.6 34.61 159.97 34.28C159.12 33.83 158.32 33.63 157.6 33.67C156.87 33.71 156.21 33.99 155.61 34.5C155.01 35.01 154.46 35.73 153.97 36.67L153.64 37.29C153.14 38.25 152.85 39.12 152.77 39.91C152.7 40.7 152.84 41.4 153.21 42.01C153.58 42.62 154.19 43.15 155.04 43.6C155.71 43.95 156.35 44.14 156.96 44.18C157.57 44.21 158.13 44.08 158.63 43.78C159.13 43.48 159.55 43.01 159.88 42.37L162.76 43.88C162.12 45.09 161.33 45.96 160.38 46.49C159.43 47.01 158.39 47.23 157.25 47.13C156.11 47.03 154.94 46.67 153.74 46.04" fill="#FFE3C2"/>
</g>
<path d="M165.83 53.28L176.5 42.03L178.95 44.35L174.71 48.81L179.7 53.54L183.93 49.08L186.38 51.4L175.7 62.65L173.25 60.33L177.74 55.61L172.75 50.87L168.27 55.6L165.83 53.28Z" fill="#FFE3C2"/>
<mask id="mask6_4054_1710" style="mask-type:luminance" maskUnits="userSpaceOnUse" x="9" y="8" width="218" height="323">
<path d="M226.98 8H9V330.83H226.98V8Z" fill="white"/>
</mask>
<g mask="url(#mask6_4054_1710)">
<path d="M187.6 69.32L190.07 73.45L192.64 70.31C192.75 70.17 192.89 70.01 193.04 69.82C193.2 69.63 193.38 69.42 193.58 69.2C193.78 68.98 193.98 68.76 194.18 68.54C194.38 68.33 194.55 68.13 194.71 67.95L194.64 67.83C194.35 67.91 194.02 68 193.63 68.09C193.24 68.18 192.86 68.27 192.49 68.35C192.12 68.43 191.83 68.49 191.59 68.54L187.6 69.32ZM179.8 67.5L196.18 64.67L198.31 68.24L188.05 81.32L186.18 78.19L188.23 75.67L184.77 69.87L181.58 70.48L179.79 67.49L179.8 67.5Z" fill="#FFE3C2"/>
</g>
<path d="M190.29 87.43L205.18 83.09L206.12 86.32L193.99 89.86L196.18 97.37L193.42 98.17L190.29 87.43Z" fill="#FFE3C2"/>
<path d="M194.41 105.04L209.9 104.31L210.06 107.68L197.43 108.27L197.8 116.08L194.93 116.22L194.41 105.04Z" fill="#FFE3C2"/>
<mask id="mask7_4054_1710" style="mask-type:luminance" maskUnits="userSpaceOnUse" x="9" y="8" width="218" height="323">
<path d="M226.98 8H9V330.83H226.98V8Z" fill="white"/>
</mask>
<g mask="url(#mask7_4054_1710)">
<path d="M200.49 128.55V133.37L204.31 131.99C204.48 131.93 204.67 131.86 204.91 131.78C205.14 131.7 205.4 131.61 205.69 131.52C205.98 131.43 206.26 131.34 206.54 131.26C206.82 131.18 207.07 131.1 207.3 131.02V130.88C207.01 130.8 206.68 130.71 206.29 130.59C205.9 130.47 205.54 130.35 205.18 130.23C204.82 130.11 204.54 130.01 204.31 129.94L200.49 128.56V128.55ZM194.73 122.99L210.24 128.96V133.12L194.73 139.09V135.45L197.78 134.34V127.58L194.73 126.47V122.99Z" fill="#FFE3C2"/>
</g>
<path d="M194.73 147.5H210.24V150.87H204.09V157.75H210.24V161.11H194.73V157.75H201.24V150.87H194.73V147.5Z" fill="#FFE3C2"/>
<mask id="mask8_4054_1710" style="mask-type:luminance" maskUnits="userSpaceOnUse" x="9" y="8" width="218" height="323">
<path d="M226.98 8H9V330.83H226.98V8Z" fill="white"/>
</mask>
<g mask="url(#mask8_4054_1710)">
<path d="M31.4101 211.65V216.47L35.2301 215.09C35.4001 215.03 35.5901 214.96 35.8301 214.87C36.0601 214.79 36.3201 214.7 36.6101 214.61C36.9001 214.52 37.1801 214.43 37.4601 214.35C37.7401 214.27 37.9901 214.19 38.2201 214.11V213.97C37.9301 213.89 37.6001 213.8 37.2101 213.68C36.8301 213.56 36.4601 213.44 36.1001 213.32C35.7401 213.2 35.4601 213.1 35.2301 213.03L31.4101 211.65ZM25.6401 206.09L41.1501 212.06V216.22L25.6401 222.19V218.55L28.6901 217.44V210.68L25.6401 209.57V206.09Z" fill="#FFE3C2"/>
</g>
<path d="M25.98 233.35L38.59 232L38.07 227.06L40.88 226.76L42.29 240.05L39.48 240.35L38.95 235.38L26.34 236.72L25.98 233.35Z" fill="#FFE3C2"/>
<path d="M33.73 263.54L47.35 256.12L48.97 259.07L42.77 262.45L52.12 264.87L54.12 268.53L45.74 266.34L40.55 276.05L38.62 272.51L42.58 265.41L39.4 264.29L35.35 266.5L33.73 263.54Z" fill="#FFE3C2"/>
<path d="M47.1001 284.61L58.3101 273.89L66.8701 282.84L64.8801 284.75L58.6601 278.25L56.1601 280.64L61.6601 286.39L59.6801 288.28L54.1801 282.53L51.4501 285.14L57.7701 291.74L55.7601 293.66L47.1001 284.61Z" fill="#FFE3C2"/>
<mask id="mask9_4054_1710" style="mask-type:luminance" maskUnits="userSpaceOnUse" x="9" y="8" width="218" height="323">
<path d="M226.98 8H9V330.83H226.98V8Z" fill="white"/>
</mask>
<g mask="url(#mask9_4054_1710)">
<path d="M68.3298 303.03L71.6198 286.87L74.7298 288.77L72.4298 298.97C72.3898 299.14 72.3498 299.35 72.2898 299.59C72.2298 299.83 72.1798 300.06 72.1198 300.3C72.0698 300.53 72.0098 300.74 71.9598 300.92L72.0798 300.99C72.2198 300.88 72.3698 300.75 72.5398 300.6C72.7098 300.45 72.8898 300.29 73.0598 300.14C73.2398 299.98 73.3998 299.84 73.5498 299.7L81.5698 292.97L84.5598 294.8L71.6798 305.11L68.3198 303.06L68.3298 303.03Z" fill="#FFE3C2"/>
</g>
<path d="M86.29 312.11L90.64 297.22L102.53 300.7L101.76 303.35L93.12 300.82L92.15 304.14L99.79 306.38L99.02 309.01L91.38 306.77L90.32 310.39L99.09 312.96L98.31 315.63L86.29 312.11Z" fill="#FFE3C2"/>
<mask id="mask10_4054_1710" style="mask-type:luminance" maskUnits="userSpaceOnUse" x="9" y="8" width="218" height="323">
<path d="M226.98 8H9V330.83H226.98V8Z" fill="white"/>
</mask>
<g mask="url(#mask10_4054_1710)">
<path d="M113.28 309.1L117.96 309.18C118.64 309.19 119.17 308.99 119.55 308.59C119.93 308.18 120.13 307.62 120.14 306.92C120.14 306.47 120.07 306.08 119.91 305.75C119.75 305.42 119.51 305.17 119.2 305C118.89 304.83 118.49 304.74 118.03 304.73L113.35 304.65L113.27 309.1H113.28ZM109.77 317.36L110.04 301.85L118.54 302C119.69 302.02 120.63 302.24 121.39 302.66C122.14 303.08 122.7 303.66 123.07 304.4C123.43 305.14 123.61 305.98 123.59 306.93C123.57 307.94 123.33 308.83 122.87 309.6C122.4 310.37 121.74 310.95 120.87 311.34L123.93 317.61L120.2 317.54L117.56 311.84L113.24 311.76L113.14 317.41L109.77 317.35V317.36Z" fill="#FFE3C2"/>
<path d="M146.54 304.22L150.88 302.46C151.51 302.2 151.92 301.81 152.11 301.29C152.3 300.76 152.27 300.17 152 299.52C151.83 299.1 151.61 298.77 151.33 298.53C151.06 298.29 150.74 298.16 150.38 298.12C150.02 298.08 149.63 298.16 149.2 298.33L144.86 300.09L146.54 304.22ZM146.55 313.2L140.71 298.83L148.59 295.63C149.65 295.2 150.61 295.03 151.47 295.12C152.33 295.21 153.07 295.52 153.69 296.06C154.31 296.6 154.81 297.3 155.16 298.18C155.54 299.11 155.67 300.03 155.54 300.92C155.41 301.81 155.03 302.6 154.39 303.31L159.66 307.88L156.21 309.28L151.54 305.07L147.54 306.7L149.67 311.94L146.55 313.21V313.2Z" fill="#FFE3C2"/>
<path d="M168.8 295.21L172.61 292.26L169.18 290.08C169.03 289.98 168.85 289.87 168.64 289.74C168.43 289.61 168.21 289.45 167.96 289.28C167.71 289.11 167.47 288.94 167.24 288.77C167 288.6 166.79 288.45 166.59 288.32L166.48 288.4C166.6 288.67 166.72 289 166.86 289.38C167 289.76 167.13 290.12 167.25 290.48C167.37 290.83 167.47 291.12 167.55 291.35L168.8 295.22V295.21ZM167.93 303.17L163.16 287.25L166.45 284.71L180.66 293.33L177.78 295.56L175.04 293.82L169.69 297.96L170.68 301.05L167.92 303.18L167.93 303.17Z" fill="#FFE3C2"/>
<path d="M192.06 280.59C191.09 281.88 190.03 282.81 188.89 283.38C187.75 283.95 186.52 284.12 185.21 283.88C183.9 283.64 182.51 282.96 181.05 281.85C178.88 280.21 177.68 278.47 177.43 276.61C177.18 274.75 177.79 272.85 179.25 270.92C180.05 269.86 180.95 269.05 181.94 268.48C182.94 267.91 183.98 267.65 185.07 267.71C186.16 267.77 187.25 268.21 188.35 269.04L186.31 271.75C185.73 271.31 185.16 271.06 184.58 271C184.01 270.94 183.45 271.04 182.92 271.3C182.39 271.57 181.91 271.99 181.48 272.55C180.9 273.32 180.57 274.07 180.49 274.79C180.41 275.52 180.58 276.22 180.98 276.89C181.39 277.56 182.01 278.22 182.85 278.86L183.41 279.28C184.28 279.93 185.09 280.36 185.86 280.56C186.63 280.76 187.34 280.73 188 280.46C188.66 280.2 189.29 279.68 189.87 278.91C190.32 278.31 190.62 277.71 190.75 277.11C190.88 276.51 190.84 275.94 190.62 275.4C190.4 274.86 190.01 274.37 189.43 273.94L191.39 271.34C192.48 272.17 193.21 273.09 193.58 274.11C193.94 275.13 193.98 276.2 193.7 277.3C193.42 278.41 192.87 279.51 192.05 280.59" fill="#FFE3C2"/>
</g>
<path d="M201.56 264.83L187.1 259.22L188.32 256.08L194.06 258.31L196.54 251.9L190.81 249.67L192.03 246.53L206.49 252.14L205.27 255.28L199.2 252.93L196.71 259.34L202.78 261.69L201.56 264.83Z" fill="#FFE3C2"/>
<path d="M209.19 240.33L193.76 238.8L194.98 226.47L197.72 226.74L196.84 235.7L200.28 236.04L201.06 228.12L203.78 228.39L203 236.31L206.76 236.68L207.66 227.59L210.43 227.87L209.19 240.33Z" fill="#FFE3C2"/>
<path d="M210.24 217.6H194.73V214.24H207.36V206.41H210.24V217.6Z" fill="#FFE3C2"/>
<mask id="mask11_4054_1710" style="mask-type:luminance" maskUnits="userSpaceOnUse" x="9" y="8" width="218" height="323">
<path d="M226.98 8H9V330.83H226.98V8Z" fill="white"/>
</mask>
<g mask="url(#mask11_4054_1710)">
<path d="M9.66016 182.82H55.1502M180.72 182.82H226.98" stroke="#CF6117" stroke-width="1.33" stroke-miterlimit="10"/>
</g>
</g>
</svg>
